<?xml version="1.0" encoding="UTF-8" standalone="no"?><!DOCTYPE svg PUBLIC "-//W3C//DTD SVG 1.1//EN" "http://www.w3.org/Graphics/SVG/1.1/DTD/svg11.dtd"><svg width="100%" height="100%" viewBox="0 0 200 200" version="1.1" xmlns="http://www.w3.org/2000/svg" xmlns:xlink="http://www.w3.org/1999/xlink" xml:space="preserve" xmlns:serif="http://www.serif.com/" style="fill-rule:evenodd;clip-rule:evenodd;stroke-linejoin:round;stroke-miterlimit:2;"><path d="M192.175,76.489l-183.348,0c-1.446,0 -2.619,1.173 -2.619,2.619l0,86.625c0,11.571 9.382,20.954 20.954,20.954l146.679,0c11.577,0 20.954,-9.383 20.954,-20.954l0,-86.625c0,-1.446 -1.169,-2.619 -2.62,-2.619Zm-113.56,73.13c-1.242,1.079 -2.777,1.613 -4.301,1.613c-1.828,0 -3.646,-0.765 -4.94,-2.247l-10.477,-12.028c-2.017,-2.315 -2.153,-5.72 -0.325,-8.193l10.477,-14.165c2.148,-2.912 6.25,-3.52 9.157,-1.372c2.908,2.148 3.52,6.249 1.367,9.157l-7.344,9.942l7.02,8.057c2.373,2.724 2.09,6.863 -0.634,9.236Zm33.442,-34.622l-10.131,36.67c-0.801,2.902 -3.436,4.804 -6.312,4.804c-0.577,0 -1.163,-0.079 -1.745,-0.236c-3.483,-0.964 -5.532,-4.568 -4.568,-8.057l10.126,-36.67c0.964,-3.483 4.558,-5.526 8.057,-4.567c3.484,0.958 5.532,4.567 4.573,8.056Zm30.379,19.414l-10.477,14.165c-1.284,1.74 -3.264,2.656 -5.27,2.656c-1.352,0 -2.714,-0.419 -3.887,-1.283c-2.908,-2.148 -3.521,-6.255 -1.368,-9.157l7.345,-9.943l-7.02,-8.057c-2.378,-2.724 -2.09,-6.862 0.634,-9.235c2.729,-2.378 6.868,-2.09 9.241,0.634l10.477,12.027c2.017,2.316 2.153,5.721 0.325,8.193Z" style="fill:#ff2e63;fill-rule:nonzero;"/><path d="M173.841,11.196l-146.679,0c-11.572,0 -20.954,9.377 -20.954,20.954l0,28.623c0,1.452 1.173,2.62 2.619,2.62l183.348,0c1.451,0 2.62,-1.168 2.62,-2.62l0,-28.623c0,-11.577 -9.377,-20.954 -20.954,-20.954Zm-136.202,36.67c-5.783,0 -10.477,-4.694 -10.477,-10.477c0,-5.789 4.694,-10.477 10.477,-10.477c5.788,0 10.477,4.688 10.477,10.477c0,5.783 -4.689,10.477 -10.477,10.477Zm34.05,0c-5.783,0 -10.477,-4.694 -10.477,-10.477c0,-5.789 4.694,-10.477 10.477,-10.477c5.789,0 10.477,4.688 10.477,10.477c0,5.783 -4.688,10.477 -10.477,10.477Z" style="fill:#ff2e63;fill-rule:nonzero;"/></svg>