<?xml version="1.0" encoding="UTF-8" standalone="no"?><!DOCTYPE svg PUBLIC "-//W3C//DTD SVG 1.1//EN" "http://www.w3.org/Graphics/SVG/1.1/DTD/svg11.dtd"><svg width="100%" height="100%" viewBox="0 0 200 200" version="1.1" xmlns="http://www.w3.org/2000/svg" xmlns:xlink="http://www.w3.org/1999/xlink" xml:space="preserve" xmlns:serif="http://www.serif.com/" style="fill-rule:evenodd;clip-rule:evenodd;stroke-linejoin:round;stroke-miterlimit:2;"><rect x="-21.842" y="-19.172" width="238.095" height="238.095" style="fill:#fff;fill-rule:nonzero;"/><path d="M69.923,84.995l-19.841,0c-2.738,0 -4.96,2.217 -4.96,4.96l0,24.802c0,2.738 2.222,4.96 4.96,4.96l19.841,0c2.743,0 4.961,-2.222 4.961,-4.96l0,-24.802c0,-2.743 -2.218,-4.96 -4.961,-4.96Z" style="fill:#ff2e63;fill-rule:nonzero;"/><path d="M169.129,20.511l-138.888,0c-10.957,0 -19.841,8.879 -19.841,19.841l0,124.008c0,10.957 8.884,19.841 19.841,19.841l138.888,0c10.962,0 19.842,-8.884 19.842,-19.841l0,-124.008c0,-10.962 -8.88,-19.841 -19.842,-19.841Zm-99.206,17.361l19.841,0c4.112,0 7.441,3.328 7.441,7.44c0,4.108 -3.329,7.441 -7.441,7.441l-19.841,0c-4.107,0 -7.44,-3.333 -7.44,-7.441c0,-4.112 3.333,-7.44 7.44,-7.44Zm-29.762,-2.48c5.481,0 9.921,4.439 9.921,9.92c0,5.477 -4.44,9.921 -9.921,9.921c-5.476,0 -9.92,-4.444 -9.92,-9.921c0,-5.481 4.444,-9.92 9.92,-9.92Zm128.968,124.007c0,2.739 -2.217,4.961 -4.96,4.961l-128.968,0c-2.738,0 -4.96,-2.222 -4.96,-4.961l0,-84.325c0,-2.743 2.222,-4.96 4.96,-4.96l128.968,0c2.743,0 4.96,2.217 4.96,4.96l0,84.325Zm-22.321,-73.164l-49.603,0c-3.422,0 -6.2,2.773 -6.2,6.2c0,3.423 2.778,6.201 6.2,6.201l49.603,0c3.428,0 6.2,-2.778 6.2,-6.201c0,-3.427 -2.772,-6.2 -6.2,-6.2Zm0,24.801l-49.603,0c-3.422,0 -6.2,2.773 -6.2,6.201c0,3.422 2.778,6.2 6.2,6.2l49.603,0c3.428,0 6.2,-2.778 6.2,-6.2c0,-3.428 -2.772,-6.201 -6.2,-6.201Zm0,24.802l-94.246,0c-3.422,0 -6.2,2.773 -6.2,6.2c0,3.423 2.778,6.201 6.2,6.201l94.246,0c3.428,0 6.2,-2.778 6.2,-6.201c0,-3.427 -2.772,-6.2 -6.2,-6.2Z" style="fill:#ff2e63;fill-rule:nonzero;"/></svg>