<?xml version="1.0" encoding="UTF-8" standalone="no"?><!DOCTYPE svg PUBLIC "-//W3C//DTD SVG 1.1//EN" "http://www.w3.org/Graphics/SVG/1.1/DTD/svg11.dtd"><svg width="100%" height="100%" viewBox="0 0 200 200" version="1.1" xmlns="http://www.w3.org/2000/svg" xmlns:xlink="http://www.w3.org/1999/xlink" xml:space="preserve" xmlns:serif="http://www.serif.com/" style="fill-rule:evenodd;clip-rule:evenodd;stroke-linejoin:round;stroke-miterlimit:2;"><path d="M126.424,84.692c0,15.601 -12.277,28.291 -27.361,28.296c-15.085,0 -27.357,-12.695 -27.357,-28.296c0,-15.601 12.272,-28.291 27.357,-28.291c1.248,0 2.468,0.118 3.672,0.29l15.66,-15.664c-5.905,-2.729 -12.439,-4.288 -19.332,-4.293c-25.926,0 -47.024,21.516 -47.024,47.958c0,26.447 21.098,47.963 47.024,47.963c25.93,-0.005 47.028,-21.521 47.028,-47.963c0,-6.701 -1.362,-13.078 -3.81,-18.88l-15.994,15.999c0.093,0.949 0.137,1.908 0.137,2.881Zm21.791,63.367c18.915,-14.706 31.158,-37.608 31.158,-63.367c0,-8.771 -1.466,-17.194 -4.076,-25.1l-4.366,4.371c-3.201,3.196 -7.459,4.961 -11.983,4.961c-0.481,0 -0.954,-0.093 -1.43,-0.133c1.381,5.079 2.188,10.389 2.188,15.901c-0.005,33.439 -27.21,60.638 -60.643,60.643c-33.439,0 -60.638,-27.204 -60.638,-60.643c0,-33.434 27.199,-60.638 60.638,-60.638c6.367,0 12.503,1.003 18.275,2.832c0.099,-4.282 1.785,-8.462 4.922,-11.598l5.502,-5.507c-8.924,-3.432 -18.581,-5.394 -28.699,-5.394c-44.281,0 -80.305,36.025 -80.305,80.305c0,27.48 13.884,51.754 34.992,66.243l-13.216,35.239c-1.431,3.815 0.496,8.068 4.317,9.499c0.85,0.319 1.725,0.472 2.586,0.472c2.984,0 5.797,-1.829 6.903,-4.789l12.444,-33.183c8.462,3.732 17.686,5.988 27.362,6.578l0,24.014c0,4.076 3.304,7.375 7.375,7.375c4.071,0 7.375,-3.299 7.375,-7.375l0,-24.432c9.48,-1.165 18.438,-3.987 26.609,-8.171l13.197,35.194c1.106,2.96 3.919,4.789 6.903,4.789c0.861,0 1.741,-0.153 2.586,-0.472c3.821,-1.431 5.748,-5.684 4.317,-9.499l-14.293,-38.115Z" style="fill:#ff2e63;fill-rule:nonzero;"/><path d="M177.755,30.5l-13.983,-5.379c-1.23,-0.472 -2.203,-1.446 -2.675,-2.675l-5.379,-13.983c-0.737,-1.917 -2.527,-2.984 -4.356,-2.984c-1.17,0 -2.35,0.437 -3.28,1.366l-17.13,17.13c-1.303,1.303 -1.716,3.245 -1.052,4.966l4.509,11.722l-29.427,29.426c-1.829,-0.742 -3.82,-1.175 -5.919,-1.175c-8.708,0.005 -15.768,7.066 -15.768,15.783c0,8.712 7.06,15.778 15.768,15.778c8.712,0 15.772,-7.066 15.772,-15.778c0,-2.094 -0.427,-4.086 -1.17,-5.915l28.34,-28.335l15.272,5.876c0.546,0.206 1.111,0.309 1.671,0.309c1.215,0 2.405,-0.477 3.295,-1.367l17.13,-17.129c2.384,-2.385 1.524,-6.427 -1.618,-7.636Z" style="fill:#ff2e63;fill-rule:nonzero;"/></svg>